<svg width="16" height="17" viewBox="0 0 16 17" fill="none" xmlns="http://www.w3.org/2000/svg">
<path d="M3.6541 1.8813C3.59507 1.80536 3.52056 1.74286 3.43551 1.69793C3.35046 1.653 3.25682 1.62668 3.16082 1.62073C3.06482 1.61477 2.96865 1.6293 2.8787 1.66337C2.78875 1.69743 2.70708 1.75025 2.6391 1.8183L1.6051 2.8533C1.1221 3.3373 0.944105 4.0223 1.1551 4.6233C2.03084 7.11089 3.4554 9.3694 5.3231 11.2313C7.18503 13.099 9.44353 14.5235 11.9311 15.3993C12.5321 15.6103 13.2171 15.4323 13.7011 14.9493L14.7351 13.9153C14.8032 13.8473 14.856 13.7657 14.89 13.6757C14.9241 13.5858 14.9386 13.4896 14.9327 13.3936C14.9267 13.2976 14.9004 13.2039 14.8555 13.1189C14.8106 13.0339 14.748 12.9593 14.6721 12.9003L12.3651 11.1063C12.284 11.0434 12.1896 10.9997 12.0891 10.9786C11.9887 10.9574 11.8847 10.9594 11.7851 10.9843L9.59511 11.5313C9.30278 11.6044 8.99653 11.6005 8.70615 11.5201C8.41577 11.4396 8.15117 11.2854 7.93811 11.0723L5.4821 8.6153C5.26887 8.40234 5.11443 8.13779 5.03382 7.8474C4.9532 7.55702 4.94917 7.25071 5.0221 6.9583L5.57011 4.7683C5.59501 4.6687 5.59697 4.56474 5.57584 4.46427C5.55471 4.36379 5.51103 4.26943 5.4481 4.1883L3.6541 1.8813ZM1.8841 1.0643C2.0591 0.889253 2.26933 0.753434 2.50084 0.665865C2.73236 0.578296 2.97985 0.540981 3.22689 0.556397C3.47393 0.571813 3.71486 0.639608 3.93369 0.755281C4.15251 0.870953 4.34423 1.03186 4.4961 1.2273L6.2901 3.5333C6.6191 3.9563 6.73511 4.5073 6.6051 5.0273L6.0581 7.2173C6.02982 7.33073 6.03135 7.44955 6.06254 7.56221C6.09373 7.67488 6.15352 7.77757 6.2361 7.8603L8.6931 10.3173C8.77594 10.4001 8.8788 10.4599 8.99166 10.4911C9.10451 10.5223 9.22353 10.5238 9.3371 10.4953L11.5261 9.9483C11.7827 9.88414 12.0506 9.87916 12.3094 9.93373C12.5682 9.9883 12.8112 10.101 13.0201 10.2633L15.3261 12.0573C16.1551 12.7023 16.2311 13.9273 15.4891 14.6683L14.4551 15.7023C13.7151 16.4423 12.6091 16.7673 11.5781 16.4043C8.93929 15.4758 6.54338 13.9651 4.5681 11.9843C2.58739 10.0093 1.07671 7.61376 0.148105 4.9753C-0.213895 3.9453 0.111105 2.8383 0.851105 2.0983L1.8851 1.0643H1.8841Z" fill="black"/>
</svg>
